# xmcd
#
# Track frame offsets:
#	150
#	12462
#	24852
#	37955
#	49432
#	61212
#	72055
#	82830
#	95120
#	107377
#	120540
#	134370
#	144352
#	156685
#	169742
#	181457
#	192495
#	204187
#	216447
#	228490
#
# Disc length: 3103 seconds
#
# Revision: 1
# Processed by: cddbd v1.4PL0 Copyright (c) Steve Scherf et al.
# Submitted via: CDmax 1.8
#
DISCID=180c1d14
DTITLE=Hank Williams - The Hit Collection
DYEAR=1995
DGENRE=Country
TTITLE0=Move It On Over
TTITLE1=Lovesick Blues
TTITLE2=Wedding Bells
TTITLE3=My Bucket's Got A Hole In It
TTITLE4=Long Gone Lonesome Blues
TTITLE5=Why Don't You Love Me
TTITLE6=Moanin' The Blues
TTITLE7=Cold Cold Heart
TTITLE8=Howlin' At The Moon
TTITLE9=Hey, Good Lookin'
TTITLE10=Ramblin' Man
TTITLE11=Honky Tonk Blues
TTITLE12=Half As Much
TTITLE13=Jambalaya (On The Bayou)
TTITLE14=Settin' The Woods On Fire
TTITLE15=I'll Never Get Out Of This World Alive
TTITLE16=Kaw-Liga
TTITLE17=Your Cheatin' Heart
TTITLE18=Take These Chains From My Heart
TTITLE19=I Won't Be Home No More
EXTD=
EXTT0=
EXTT1=
EXTT2=
EXTT3=
EXTT4=
EXTT5=
EXTT6=
EXTT7=
EXTT8=
EXTT9=
EXTT10=
EXTT11=
EXTT12=
EXTT13=
EXTT14=
EXTT15=
EXTT16=
EXTT17=
EXTT18=
EXTT19=
PLAYORDER=
